<svg width="23" height="23" viewBox="0 0 23 23" fill="none" xmlns="http://www.w3.org/2000/svg">
<path d="M5.3203 20.7333C2.12747 18.7603 0 15.2283 0 11.1993C0 5.01411 5.01411 0 11.1993 0C17.3845 0 22.3986 5.01411 22.3986 11.1993C22.3986 17.3845 17.3845 22.3986 11.1993 22.3986C10.9025 22.3986 10.6084 22.3871 10.3173 22.3644L11.419 19.3376C11.6013 18.8368 12.2098 18.1659 12.7464 17.5737C13.0535 17.2356 13.3183 16.9431 13.4194 16.7713C13.9072 15.9406 15.3949 13.4454 15.4099 13.4202C15.7156 12.9817 16.2062 12.2321 16.5087 11.7428L18.1606 9.05894C18.4628 8.56833 18.4857 7.95259 18.2116 7.68685C18.1634 7.64042 18.107 7.60516 18.0441 7.58225C17.7412 7.47201 17.3387 7.65074 17.0424 8.02696L15.3817 10.3427C15.1896 10.5867 14.9748 10.7868 14.7669 10.9806C14.5939 11.1417 14.4153 11.3087 14.2554 11.4948L14.0857 11.6932C14.0651 11.7169 14.0363 11.7315 14.005 11.7336C13.9737 11.7357 13.9441 11.7318 13.917 11.7219C13.8577 11.7004 13.7624 11.6327 13.7882 11.4218C13.7939 11.3959 14.0846 10.1741 13.3136 9.84862L13.2799 9.83582C12.8632 9.68415 12.5313 9.94473 12.1629 10.3829C12.1075 10.4487 11.9942 10.4549 11.9371 10.4341C11.8241 10.3874 11.7742 10.2872 11.8004 10.1708C11.9318 9.58294 11.6895 9.03318 11.2241 8.8638L11.1883 8.85187C10.7833 8.72191 10.2947 8.88834 10.0016 9.25795C9.99077 9.27128 9.97815 9.28195 9.96326 9.28944C9.90505 9.34497 9.80514 9.42222 9.69646 9.38267C9.58008 9.3403 9.5524 9.19861 9.54192 9.09555L9.52882 8.96772C9.51618 8.84113 9.49991 8.69506 9.48138 8.53817C9.42314 8.02544 9.35046 7.38709 9.36209 6.96305L9.54072 3.94957C9.55312 3.50945 9.35062 3.13436 9.03714 3.02025C8.94869 2.98806 8.85564 2.97801 8.76037 2.99004C8.31716 3.04705 7.93651 3.54947 7.8933 4.13417L7.56439 7.18093C7.54159 7.48931 7.54874 7.92018 7.55585 8.33668C7.56113 8.64581 7.56612 8.93777 7.55881 9.17359L7.53015 10.1453C7.51991 10.4726 7.41542 10.7073 7.21907 10.8427C7.1108 10.9189 6.74646 11.1808 6.35243 11.5481C6.30917 11.5886 6.26538 11.627 6.22246 11.665C5.93161 11.9227 5.68079 12.1453 5.65665 12.8844C5.64393 13.2315 5.66001 13.5844 5.71004 14.1027C5.76229 14.6469 5.92308 14.9883 6.0937 15.3496C6.33674 15.8645 6.81385 16.6298 6.49257 17.5125C6.48999 17.5196 5.71532 19.648 5.3203 20.7333V20.7333Z" fill="#C2BEBC" fill-opacity="0.49"/>
</svg>
