<svg width="23" height="23" viewBox="0 0 23 23" fill="none" xmlns="http://www.w3.org/2000/svg">
<path d="M11.794 0C5.60957 0 0.594604 5.14079 0.594604 11.4828C0.594604 16.5562 3.80358 20.8605 8.25345 22.3789C8.81316 22.4852 9.01865 22.1298 9.01865 21.8265C9.01865 21.5527 9.00826 20.6481 9.00344 19.6886C5.88775 20.3833 5.2303 18.3338 5.2303 18.3338C4.72085 17.0065 3.98681 16.6536 3.98681 16.6536C2.97069 15.9409 4.0634 15.9555 4.0634 15.9555C5.18802 16.0364 5.78019 17.1389 5.78019 17.1389C6.77906 18.8944 8.40015 18.3868 9.03923 18.0934C9.13975 17.3515 9.42999 16.8445 9.75028 16.558C7.26273 16.2676 4.64778 15.283 4.64778 10.883C4.64778 9.62935 5.08528 8.60499 5.8017 7.80084C5.68542 7.51142 5.30208 6.34369 5.91019 4.762C5.91019 4.762 6.85065 4.45338 8.99083 5.93905C9.88418 5.68462 10.8423 5.55703 11.794 5.55266C12.7458 5.55703 13.7046 5.68462 14.5996 5.93905C16.7372 4.45338 17.6764 4.762 17.6764 4.762C18.286 6.34369 17.9024 7.51142 17.7862 7.80084C18.5043 8.60499 18.9388 9.62935 18.9388 10.883C18.9388 15.2934 16.3188 16.2645 13.825 16.5488C14.2267 16.9052 14.5846 17.604 14.5846 18.6753C14.5846 20.2115 14.5716 21.4481 14.5716 21.8265C14.5716 22.1321 14.7732 22.4902 15.3409 22.3774C19.7884 20.8573 22.9933 16.5545 22.9933 11.4828C22.9933 5.14079 17.979 0 11.794 0" fill="#C2BEBC" fill-opacity="0.49"/>
</svg>
