<svg width="24" height="23" viewBox="0 0 24 23" fill="none" xmlns="http://www.w3.org/2000/svg">
<path fill-rule="evenodd" clip-rule="evenodd" d="M11.9966 0C5.81141 0 0.797302 5.01411 0.797302 11.1993C0.797302 17.3845 5.81141 22.3986 11.9966 22.3986C18.1818 22.3986 23.196 17.3845 23.196 11.1993C23.196 5.01411 18.1818 0 11.9966 0ZM6.17373 9.27577H8.71175V16.9014H6.17373V9.27577ZM8.8789 6.91684C8.86243 6.16915 8.32775 5.59966 7.45952 5.59966C6.59128 5.59966 6.02365 6.16915 6.02365 6.91684C6.02365 7.64905 6.5745 8.23493 7.42657 8.23493H7.44279C8.32775 8.23493 8.8789 7.64905 8.8789 6.91684ZM14.9426 9.0967C16.6127 9.0967 17.8648 10.1868 17.8648 12.5291L17.8647 16.9014H15.3268V12.8217C15.3268 11.797 14.9595 11.0977 14.0407 11.0977C13.3396 11.0977 12.9219 11.5691 12.7385 12.0244C12.6714 12.1876 12.6549 12.4149 12.6549 12.6428V16.9016H10.1166C10.1166 16.9016 10.15 9.99153 10.1166 9.27597H12.6549V10.3561C12.9918 9.83686 13.5951 9.0967 14.9426 9.0967Z" fill="#C2BEBC" fill-opacity="0.49"/>
</svg>
