<svg width="24" height="23" viewBox="0 0 24 23" fill="none" xmlns="http://www.w3.org/2000/svg">
<path fill-rule="evenodd" clip-rule="evenodd" d="M12.1926 22.3986C6.00736 22.3986 0.993256 17.3845 0.993256 11.1993C0.993256 5.01411 6.00736 0 12.1926 0C18.3778 0 23.3919 5.01411 23.3919 11.1993C23.3919 17.3845 18.3778 22.3986 12.1926 22.3986ZM12.3486 10.5708C13.2656 10.5708 17.7243 8.06351 17.7243 8.06351L17.7315 7.61554C17.7315 7.12098 17.3301 6.71959 16.8342 6.71959H7.86307C7.36761 6.71959 6.96623 7.12098 6.96623 7.61554V8.01468C6.96623 8.01468 11.4737 10.5708 12.3486 10.5708ZM6.9734 9.40743C6.97295 9.40743 11.4737 11.8027 12.3486 11.8027C13.3077 11.8027 17.7243 9.40743 17.7243 9.40743L17.7315 14.7831C17.7315 15.2777 17.3301 15.6791 16.8342 15.6791H7.86307C7.36806 15.6791 6.96623 15.2777 6.96623 14.7831L6.9734 9.40743Z" fill="#C2BEBC" fill-opacity="0.49"/>
</svg>
