<svg width="23" height="23" viewBox="0 0 23 23" fill="none" xmlns="http://www.w3.org/2000/svg">
<path fill-rule="evenodd" clip-rule="evenodd" d="M0.391907 11.1993C0.391907 17.3845 5.40602 22.3986 11.5912 22.3986C17.7764 22.3986 22.7906 17.3845 22.7906 11.1993C22.7906 5.01411 17.7764 0 11.5912 0C5.40602 0 0.391907 5.01411 0.391907 11.1993ZM17.3521 11.2613C17.3521 11.6753 17.3071 12.0783 17.2207 12.4675C17.4406 12.9037 17.5642 13.3946 17.5642 13.9146C17.5642 15.7134 16.085 17.1723 14.2602 17.1723C13.6948 17.1723 13.1638 17.0317 12.6982 16.7852C12.3596 16.8469 12.0113 16.8794 11.6544 16.8794C8.50782 16.8794 5.9568 14.3646 5.9568 11.2613C5.9568 10.8749 5.99684 10.4969 6.07199 10.1327C5.78402 9.64801 5.61826 9.08578 5.61826 8.48478C5.61826 6.68454 7.09745 5.22635 8.92292 5.22635C9.5684 5.22635 10.171 5.40984 10.6803 5.72626C10.9977 5.67226 11.3229 5.64387 11.6544 5.64387C14.8018 5.64387 17.3521 8.15935 17.3521 11.2613Z" fill="#C2BEBC" fill-opacity="0.49"/>
<path d="M14.577 13.9464C14.3136 14.3148 13.9245 14.6056 13.4188 14.8119C12.9194 15.0169 12.321 15.1214 11.639 15.1214C10.8207 15.1214 10.1345 14.9795 9.59862 14.699C9.21582 14.4955 8.90046 14.2199 8.66095 13.8779C8.41863 13.5344 8.29642 13.1931 8.29642 12.8628C8.29642 12.6579 8.37649 12.4792 8.53382 12.3331C8.68975 12.1877 8.88992 12.115 9.12873 12.115C9.32399 12.115 9.49326 12.1725 9.63022 12.2867C9.76157 12.3968 9.87395 12.5595 9.96455 12.7679C10.0657 12.9964 10.1753 13.1889 10.2912 13.3392C10.4035 13.486 10.5644 13.6085 10.7695 13.7048C10.976 13.8003 11.2548 13.8502 11.5969 13.8502C12.0682 13.8502 12.4545 13.7505 12.7445 13.5552C13.029 13.3648 13.1667 13.1349 13.1667 12.8538C13.1667 12.6329 13.0943 12.4584 12.9468 12.3214C12.7909 12.1787 12.5865 12.0679 12.3386 11.9904C12.0794 11.9115 11.7282 11.8249 11.2934 11.7349C10.7013 11.6103 10.1991 11.4628 9.8002 11.2945C9.39142 11.1235 9.062 10.886 8.82109 10.589C8.57666 10.2864 8.45234 9.90765 8.45234 9.46244C8.45234 9.03869 8.58228 8.6558 8.83935 8.32622C9.09361 7.99871 9.46587 7.74252 9.94559 7.56873C10.4183 7.39632 10.9802 7.30908 11.6172 7.30908C12.1258 7.30908 12.5732 7.36724 12.9468 7.48218C13.3226 7.59712 13.6387 7.75222 13.8873 7.94401C14.138 8.13788 14.3249 8.34352 14.4415 8.55817C14.5595 8.77489 14.6199 8.99022 14.6199 9.19864C14.6199 9.39943 14.5412 9.58223 14.386 9.74078C14.2301 9.90142 14.0327 9.98243 13.8009 9.98243C13.5902 9.98243 13.4244 9.93119 13.3107 9.83149C13.2039 9.73802 13.0929 9.59261 12.97 9.38489C12.8281 9.11901 12.656 8.90921 12.4587 8.76104C12.2669 8.61702 11.9473 8.54501 11.507 8.54501C11.0996 8.54501 10.7667 8.62533 10.5201 8.78528C10.2827 8.9383 10.1668 9.11486 10.1668 9.32396C10.1668 9.45136 10.2041 9.55868 10.2813 9.65008C10.3614 9.7484 10.4759 9.83287 10.6206 9.90488C10.7702 9.97897 10.9247 10.0385 11.0792 10.0801C11.2372 10.1237 11.5027 10.1881 11.8673 10.2712C12.3287 10.3681 12.7523 10.4782 13.1266 10.5966C13.5066 10.7157 13.8339 10.8625 14.1022 11.0349C14.3747 11.2101 14.5904 11.4344 14.7442 11.703C14.898 11.9738 14.976 12.3061 14.976 12.6932C14.976 13.1557 14.8411 13.5774 14.577 13.9464V13.9464V13.9464Z" fill="#C2BEBC" fill-opacity="0.49"/>
</svg>
