<svg width="24" height="23" viewBox="0 0 24 23" fill="none" xmlns="http://www.w3.org/2000/svg">
<path fill-rule="evenodd" clip-rule="evenodd" d="M11.9899 0C5.80467 0 0.790558 5.01411 0.790558 11.1993C0.790558 17.3845 5.80467 22.3986 11.9899 22.3986C18.1751 22.3986 23.1892 17.3845 23.1892 11.1993C23.1892 5.01411 18.1751 0 11.9899 0ZM11.678 9.49047L11.6545 9.10295C11.584 8.09856 12.2028 7.18116 13.182 6.82527C13.5424 6.69873 14.1534 6.68292 14.5529 6.79364C14.7096 6.84109 15.0073 6.99926 15.2188 7.14162L15.6026 7.4026L16.0257 7.26815C16.2607 7.19698 16.574 7.07835 16.715 6.99926C16.8482 6.92808 16.9657 6.88854 16.9657 6.91227C16.9657 7.04671 16.6759 7.50541 16.433 7.75849C16.104 8.11438 16.198 8.14601 16.8639 7.90875C17.2634 7.7743 17.2712 7.7743 17.1929 7.92457C17.1459 8.00365 16.903 8.28046 16.6445 8.53353C16.2058 8.9685 16.1823 9.01596 16.1823 9.37975C16.1823 9.94126 15.916 11.1117 15.6496 11.7523C15.1561 12.9544 14.0986 14.1961 13.041 14.8209C11.5526 15.6987 9.5707 15.9202 7.90212 15.4061C7.34593 15.2321 6.39022 14.7892 6.39022 14.7102C6.39022 14.6864 6.68007 14.6548 7.03258 14.6469C7.76895 14.6311 8.50532 14.4254 9.13201 14.0617L9.55503 13.8086L9.06934 13.6425C8.37998 13.4052 7.76112 12.8595 7.60444 12.3455C7.55744 12.1794 7.57311 12.1715 8.0118 12.1715L8.46615 12.1636L8.0823 11.9817C7.62794 11.7523 7.21276 11.3648 7.00908 10.9694C6.86024 10.6847 6.67223 9.96499 6.72707 9.90963C6.74274 9.8859 6.90724 9.93336 7.09525 9.99662C7.63578 10.1943 7.70628 10.1469 7.39293 9.81473C6.80541 9.21367 6.62523 8.32 6.90724 7.47378L7.04042 7.09416L7.55744 7.60822C8.61499 8.64425 9.86055 9.26112 11.2863 9.44302L11.678 9.49047Z" fill="#C2BEBC" fill-opacity="0.49"/>
</svg>
