<svg width="23" height="23" viewBox="0 0 23 23" fill="none" xmlns="http://www.w3.org/2000/svg">
<path fill-rule="evenodd" clip-rule="evenodd" d="M11.3953 0C17.5805 0 22.5946 5.01411 22.5946 11.1993C22.5946 17.3845 17.5805 22.3986 11.3953 22.3986C5.21006 22.3986 0.195953 17.3845 0.195953 11.1993C0.195953 5.01411 5.21006 0 11.3953 0ZM14.379 9.78C14.3245 9.33748 14.1885 8.99001 13.947 8.68224C13.6333 8.28593 13.2325 8.04862 12.6391 7.90784C12.2524 7.81401 12.0961 7.82479 11.9563 7.95255C11.826 8.07225 11.8005 8.31221 11.9001 8.46761C11.9701 8.58039 12.0509 8.6208 12.2756 8.6649C12.5747 8.71994 12.7815 8.79138 12.9695 8.89891C13.3687 9.1294 13.5546 9.49008 13.5745 10.074C13.5838 10.3482 13.6075 10.4325 13.7033 10.5297C13.8807 10.7075 14.1966 10.6729 14.3306 10.4602C14.3798 10.38 14.3873 10.3451 14.3925 10.1589C14.3959 10.0437 14.3909 9.87212 14.379 9.78ZM14.3843 7.06498C15.3334 7.83243 15.8637 8.9232 15.9425 10.279C15.9757 10.8129 15.9316 10.9869 15.7432 11.0859C15.5732 11.1777 15.3806 11.1475 15.2485 11.0093C15.1609 10.9194 15.1273 10.7965 15.1286 10.5788C15.1324 9.97696 14.9938 9.30485 14.7683 8.83848C14.5074 8.29567 14.1041 7.83375 13.5967 7.49603C13.1523 7.19941 12.5641 6.99906 11.9938 6.94916C11.6239 6.9168 11.4918 6.85415 11.4208 6.67681C11.3768 6.57073 11.3884 6.38734 11.44 6.3052C11.4887 6.22946 11.5981 6.1457 11.6755 6.12356C11.7575 6.09965 12.2353 6.14145 12.4948 6.19303C13.2033 6.33723 13.8496 6.63375 14.3843 7.06498ZM17.6726 15.5C17.6461 15.4225 17.5842 15.303 17.54 15.2344C17.2615 14.8138 15.7651 13.6427 15.018 13.2598C14.5914 13.0406 14.2754 12.9676 14.0411 13.0362C13.7891 13.1071 13.6565 13.2243 13.2343 13.749C13.0641 13.9593 12.8895 14.1563 12.8431 14.1873C12.7281 14.267 12.5027 14.3312 12.3435 14.3312C11.9744 14.329 11.3047 14.0899 10.7897 13.7756C10.3896 13.5321 9.87685 13.096 9.48339 12.6643C9.0192 12.1574 8.70317 11.7102 8.45337 11.2055C8.13068 10.5569 8.0489 10.1606 8.18371 9.87065C8.21687 9.7976 8.26109 9.72015 8.28095 9.69576C8.30086 9.67366 8.50864 9.50319 8.73849 9.31723C9.18942 8.95864 9.26235 8.87673 9.34634 8.63101C9.45243 8.31886 9.42371 8.0001 9.26015 7.67913C9.13415 7.43562 8.80481 6.90434 8.56611 6.56123C8.25003 6.10966 7.46315 5.1445 7.3062 5.01386C7.02328 4.78366 6.66082 4.74379 6.26072 4.89878C5.83858 5.06259 5.04726 5.70012 4.70908 6.14508C4.40405 6.54795 4.28694 6.8335 4.26924 7.20983C4.25378 7.51973 4.28029 7.64813 4.44386 8.04439C5.72364 11.1524 7.63333 13.6339 10.257 15.6041C11.6274 16.6334 13.0486 17.4171 14.5229 17.9528C15.3827 18.2649 15.7563 18.2804 16.1961 18.0236C16.3818 17.9129 16.8415 17.4414 17.0979 17.0983C17.5223 16.5272 17.6793 16.2637 17.7234 16.0534C17.7544 15.9096 17.7301 15.6594 17.6726 15.5ZM17.1075 8.49307C17.3767 9.1944 17.5058 9.82343 17.5341 10.5903C17.5386 10.7418 17.5365 11.0194 17.5267 11.2074C17.5063 11.5679 17.4867 11.6395 17.383 11.7348C17.2162 11.8913 16.8911 11.854 16.7678 11.6654C16.7034 11.5643 16.6944 11.4901 16.7068 11.069C16.7426 9.82334 16.4906 8.848 15.8837 7.87273C15.1585 6.70265 14.0737 5.91443 12.663 5.52881C12.3033 5.43066 12.0001 5.37084 11.5286 5.30736C11.2215 5.26716 11.1542 5.25016 11.0784 5.20351C10.8495 5.05684 10.8464 4.68546 11.0747 4.53656C11.1925 4.45796 11.2793 4.45445 11.6633 4.50362C12.7892 4.64432 13.7939 4.97888 14.6194 5.48443C15.2111 5.84728 15.5842 6.17325 16.0646 6.74415C16.5726 7.35303 16.8416 7.8032 17.1075 8.49307Z" fill="#C2BEBC" fill-opacity="0.49"/>
</svg>
